<svg version="1.1" id="Layer_1" xmlns="http://www.w3.org/2000/svg" xmlns:xlink="http://www.w3.org/1999/xlink" x="0px" y="0px"
	 width="100%" viewBox="0 0 321 321" enable-background="new 0 0 321 321" xml:space="preserve">
<path fill="#0E0E0E" opacity="1.000000" stroke="none" 
	d="
M211.000000,322.000000 
	C142.000031,322.000000 73.499985,321.967346 5.000256,322.096497 
	C1.575822,322.102966 0.900690,321.424194 0.904532,317.999969 
	C1.021576,213.666824 1.021564,109.333466 0.904569,5.000295 
	C0.900730,1.576660 1.575478,0.900676 4.999916,0.904518 
	C109.333084,1.021577 213.666428,1.021556 317.999573,0.904587 
	C321.422974,0.900748 322.099335,1.575127 322.095490,4.999801 
	C321.978424,109.332962 321.978455,213.666306 322.095398,317.999451 
	C322.099243,321.422577 321.427429,322.114563 317.999969,322.099030 
	C282.500549,321.937958 247.000137,322.000000 211.000000,322.000000 
z"/>
<path fill="#FDFDFD" opacity="1.000000" stroke="none" 
	d="
M212.999664,284.458618 
	C204.167999,284.458984 195.830658,284.280548 187.507477,284.546143 
	C184.093231,284.655060 183.787674,283.221680 183.826935,280.435760 
	C183.965530,270.606384 184.016525,260.770905 183.801514,250.944290 
	C183.735733,247.937820 184.883499,246.766449 187.455475,245.493225 
	C216.329269,231.199768 231.420593,207.877151 230.775177,175.619354 
	C230.296555,151.699097 219.276901,132.614426 200.031647,118.363937 
	C191.313217,111.908226 188.477295,104.042465 191.668732,94.981102 
	C196.046982,82.550026 209.596893,77.762703 220.452713,85.260918 
	C246.173172,103.026253 262.297485,127.309128 267.931732,158.106033 
	C273.598419,189.080597 266.970764,217.563583 249.122360,243.467224 
	C248.760284,243.992691 248.462784,244.562622 248.103638,245.164658 
	C249.460846,246.508606 251.018753,245.835236 252.375931,245.841553 
	C266.039520,245.905197 279.707703,246.067749 293.364868,245.765045 
	C297.382996,245.675995 297.069977,247.664963 297.031311,250.277466 
	C296.993530,252.830902 297.487671,255.248291 293.364349,254.867310 
	C288.903381,254.455124 284.373505,254.711441 279.876312,254.803467 
	C277.930389,254.843277 276.588287,254.326630 275.151581,252.803955 
	C272.136047,249.607880 267.226685,249.739944 264.483673,252.661819 
	C261.936646,255.374969 261.991180,259.952118 264.602539,262.637329 
	C267.483673,265.599945 271.748932,265.861023 274.794952,262.639526 
	C276.541107,260.792725 278.252441,260.419983 280.491638,260.470245 
	C284.322266,260.556274 288.189575,260.810577 291.979950,260.410828 
	C296.253845,259.960083 297.076172,261.530396 297.182800,265.596985 
	C297.304535,270.242004 295.882629,271.276764 291.441101,271.179260 
	C277.783813,270.879547 264.115692,271.055725 250.451859,271.084564 
	C248.112015,271.089508 246.185211,270.953735 244.314407,268.877319 
	C241.504623,265.758667 236.854797,266.126312 234.100296,269.031036 
	C231.372635,271.907471 231.347946,276.046967 234.041183,278.940338 
	C236.687500,281.783295 241.503616,282.139008 244.308273,279.196320 
	C245.996353,277.425110 247.609604,276.908844 249.910660,276.922974 
	C264.240540,277.010925 278.571320,276.992401 292.901581,276.944000 
	C295.360504,276.935699 297.277679,276.680389 297.144379,280.382050 
	C297.028595,283.598083 296.289551,284.551575 292.982727,284.534637 
	C266.488953,284.398682 239.994156,284.458649 212.999664,284.458618 
z"/>
<path fill="#FEFEFE" opacity="1.000000" stroke="none" 
	d="
M23.339127,271.279816 
	C22.969463,267.971313 22.942228,264.933289 22.920643,261.439819 
	C30.000751,258.324036 37.096798,258.815735 44.179073,260.910492 
	C45.113483,261.186859 45.902176,261.897308 46.808094,262.313904 
	C49.534779,263.567932 51.992657,263.337036 53.934422,260.867157 
	C55.553200,258.808105 55.735832,256.549011 54.129444,254.455505 
	C52.312210,252.087173 49.641262,251.019287 47.096249,252.673294 
	C40.675152,256.846375 33.623734,255.275223 26.753695,255.472427 
	C25.589504,255.505844 24.443132,255.241943 23.145157,254.318146 
	C22.978210,245.878113 22.978210,245.877960 31.290339,245.877869 
	C42.759377,245.877731 54.228416,245.877838 65.983429,245.877838 
	C65.833046,243.324799 64.081238,241.885361 62.968624,240.194199 
	C28.706383,188.116074 43.353867,118.251137 95.669395,84.378197 
	C105.579430,77.961708 117.069786,79.693832 123.034279,88.503334 
	C129.690414,98.334389 127.210320,109.474831 116.867012,116.616203 
	C94.007240,132.399368 82.177711,154.237076 83.633965,181.969788 
	C85.189735,211.597733 100.495636,232.767441 127.138420,245.685364 
	C129.268311,246.718063 130.627762,247.493561 130.577240,250.259659 
	C130.391708,260.415466 130.426636,270.577667 130.554794,280.735260 
	C130.589218,283.464508 129.896622,284.512146 126.953697,284.504395 
	C93.312035,284.415680 59.669941,284.415955 26.028337,284.516937 
	C23.129179,284.525635 22.641752,283.275391 22.849133,280.486267 
	C22.439957,279.162445 22.506842,278.265839 22.831778,276.990662 
	C25.274286,275.009796 27.844009,275.359985 30.309883,275.350250 
	C42.137661,275.303406 53.965778,275.354767 65.793571,275.315582 
	C69.679970,275.302704 73.340538,275.658356 76.734886,277.983276 
	C79.268570,279.718719 82.187057,279.828888 84.315941,277.084381 
	C85.921516,275.014496 85.859901,272.660309 84.110626,270.666718 
	C82.002747,268.264465 79.229042,268.303253 76.881531,269.938354 
	C73.349228,272.398712 69.514481,272.704895 65.461472,272.687805 
	C53.800339,272.638641 42.138798,272.691071 30.477549,272.654175 
	C28.167862,272.646881 25.783876,272.913696 23.339127,271.279816 
z"/>
<path fill="#FDFDFD" opacity="1.000000" stroke="none" 
	d="
M160.780640,27.650761 
	C172.281357,29.095936 179.080276,36.282112 179.119644,47.293018 
	C179.233994,79.285797 179.233917,111.279449 179.133118,143.272308 
	C179.096848,154.780273 170.793579,163.072250 159.801590,163.066269 
	C148.832169,163.060318 140.393463,154.779221 140.341858,143.301010 
	C140.197998,111.308426 140.181702,79.314163 140.352921,47.321831 
	C140.415482,35.630962 148.133774,28.363829 160.780640,27.650761 
z"/>
<path fill="#141414" opacity="1.000000" stroke="none" 
	d="
M22.993439,271.221130 
	C38.652454,271.026093 54.308258,271.027191 69.963905,271.078522 
	C72.015762,271.085236 73.538498,270.750793 75.121605,269.002411 
	C77.953629,265.874725 82.557472,266.073700 85.354584,268.851196 
	C88.184570,271.661346 88.185089,276.364197 85.355713,279.175262 
	C82.651657,281.861816 77.747719,282.110992 75.104736,278.999878 
	C73.350548,276.934998 71.541061,276.980347 69.425140,276.980225 
	C54.268726,276.979340 39.112312,276.986481 23.493061,277.055420 
	C22.093124,275.712494 22.644621,274.148163 22.789036,272.253174 
	C23.019245,271.855347 22.990177,271.432861 22.993439,271.221130 
z"/>
<path fill="#3C3C3C" opacity="1.000000" stroke="none" 
	d="
M22.625967,254.305817 
	C29.076742,255.396957 35.361164,254.320053 41.604328,254.593277 
	C43.166492,254.661636 43.670990,253.118057 44.644684,252.285614 
	C47.761845,249.620697 52.303825,249.685135 55.013550,252.397263 
	C57.847954,255.234177 57.869877,259.781464 55.063099,262.677124 
	C52.181824,265.649658 47.893009,266.049896 44.897568,262.928650 
	C43.008091,260.959808 41.124931,260.636963 38.759037,260.670410 
	C33.788177,260.740662 28.816015,260.718750 23.385340,260.859558 
	C21.414305,258.964111 22.044163,256.762146 22.625967,254.305817 
z"/>
<path fill="#EAEAEA" opacity="1.000000" stroke="none" 
	d="
M266.788818,257.198608 
	C267.529266,254.752487 268.896820,253.955414 270.976562,254.722672 
	C272.329620,255.221848 273.073456,256.254639 272.996643,257.735382 
	C272.906647,259.470184 271.735382,260.545013 270.239838,260.722717 
	C268.153503,260.970642 266.897675,259.761597 266.788818,257.198608 
z"/>
<path fill="#EEEEEE" opacity="1.000000" stroke="none" 
	d="
M238.301208,276.973846 
	C236.335953,275.640198 235.534378,274.210449 236.838806,272.299103 
	C237.809967,270.876129 239.203522,270.584106 240.694916,271.200562 
	C242.013535,271.745667 242.730682,272.970032 242.510544,274.337891 
	C242.178665,276.400146 240.835083,277.404327 238.301208,276.973846 
z"/>
<path fill="#3C3C3C" opacity="1.000000" stroke="none" 
	d="
M22.757256,272.153809 
	C23.005478,273.320374 22.991711,274.785370 23.004086,276.685120 
	C23.020317,277.853973 23.010405,278.588165 22.897734,279.674805 
	C21.499020,277.549622 21.943811,275.003052 22.757256,272.153809 
z"/>
<path fill="#EFEFEF" opacity="1.000000" stroke="none" 
	d="
M77.126724,274.827850 
	C77.055573,272.260712 78.090744,270.990387 80.314362,270.974579 
	C81.804947,270.963989 82.797707,271.785675 83.123802,273.262268 
	C83.434586,274.669525 83.151886,275.984344 81.805290,276.677032 
	C79.881416,277.666656 78.303123,277.118591 77.126724,274.827850 
z"/>
<path fill="#EAEAEA" opacity="1.000000" stroke="none" 
	d="
M52.465897,256.200714 
	C53.024200,259.464905 51.786896,261.063019 48.787308,260.378418 
	C46.828274,259.931274 46.288216,258.033264 47.095177,256.437561 
	C48.346710,253.962662 50.285645,253.952484 52.465897,256.200714 
z"/>
</svg>